<svg width="798" height="443" viewBox="0 0 798 443" fill="none" xmlns="http://www.w3.org/2000/svg">
<path d="M495.5 108C407.5 39 266.5 80.5 246.5 207.5C232.753 220.597 225.488 227.076 197.5 258.5C195.844 240.735 195.36 230.774 196 213C207.5 144 223.5 127.5 241.5 101C176.099 126.71 103.646 185.522 63.5 232C97.9277 268.241 120 288 172.5 325.5C241.607 252.058 271.847 220.186 326.5 163.5C352.468 190.717 372.428 210.145 405 242C486.874 159.058 519.815 120.302 586 52.5C573.735 40.0895 566.714 33.1688 553.5 21C598.167 12.9205 621.889 8.38478 677 0C669.682 41.9336 665.207 67.7918 658.41 107.076L656 121C645.063 109.039 637.612 102.389 625 90.5C543.29 173.273 493.727 228.471 406.5 319.5C376.182 288.949 359.01 271.914 327.5 242C324.213 240.241 252.474 320.185 187 388.5C105.697 344.42 63.5 301 0 232C189.102 -4.4384 445 -8 547 52.5L495.5 108Z" fill="url(#paint0_linear_2_510)"/>
<path d="M798 231.5C647 417 427 499 213 400.5L279 331.5C405 465.5 575.5 344 553 206.5L592 164.5C610.007 249.825 604.675 293.07 557 361.5C625.166 330.543 673.776 296.026 735 232C712.323 207.918 699.07 195.439 675 174L684 120.5C734.27 160.35 759.552 184.457 798 231.5Z" fill="url(#paint1_linear_2_510)"/>
<defs>
<linearGradient id="paint0_linear_2_510" x1="798" y1="221.267" x2="0" y2="221.267" gradientUnits="userSpaceOnUse">
<stop offset="0.413462" stop-color="#CEB776"/>
<stop offset="0.947115" stop-color="#6E530C"/>
</linearGradient>
<linearGradient id="paint1_linear_2_510" x1="798" y1="221.267" x2="0" y2="221.267" gradientUnits="userSpaceOnUse">
<stop offset="0.413462" stop-color="#CEB776"/>
<stop offset="0.947115" stop-color="#6E530C"/>
</linearGradient>
</defs>
</svg>
